<?xml version="1.0" standalone="no"?>
<!DOCTYPE svg PUBLIC "-//W3C//DTD SVG 20010904//EN"
 "http://www.w3.org/TR/2001/REC-SVG-20010904/DTD/svg10.dtd">
<svg version="1.0" xmlns="http://www.w3.org/2000/svg"
 width="700.000000pt" height="700.000000pt" viewBox="0 0 700.000000 700.000000"
 preserveAspectRatio="xMidYMid meet">
<metadata>
Created by potrace 1.11, written by Peter Selinger 2001-2013
</metadata>
<g transform="translate(0.000000,700.000000) scale(0.100000,-0.100000)"
fill="#000000" stroke="none">
<path d="M0 3500 l0 -3500 3500 0 3500 0 0 3500 0 3500 -3500 0 -3500 0 0
-3500z m5010 2485 c0 -353 -1 -379 -21 -437 -36 -107 -96 -176 -198 -228 -25
-12 -207 -64 -405 -114 l-361 -91 -5 -440 -5 -439 -490 -117 c-269 -64 -493
-114 -498 -112 -11 6 -8 1466 3 1548 20 140 117 276 240 337 49 24 1675 465
1723 467 16 1 17 -23 17 -374z m10 -2114 c0 -374 -4 -428 -42 -508 -27 -58
-109 -143 -166 -172 -23 -12 -203 -60 -400 -107 -196 -47 -365 -87 -374 -90
-16 -5 -17 -61 -20 -787 -4 -773 -4 -783 -26 -862 -75 -268 -257 -487 -498
-596 -53 -24 -447 -139 -476 -139 -5 0 -8 480 -8 1066 0 1010 -1 1065 -17
1060 -10 -3 -227 -57 -483 -121 -256 -64 -473 -118 -482 -121 -17 -5 -18 15
-18 333 0 361 6 424 46 510 46 97 151 192 249 224 43 14 2681 666 2703 668 9
1 12 -77 12 -358z"/>
</g>
</svg>
