<?xml version="1.0" encoding="utf-8"?>
<!-- Generator: Adobe Illustrator 20.1.0, SVG Export Plug-In . SVG Version: 6.00 Build 0)  -->
<svg version="1.1" id="Слой_1" xmlns="http://www.w3.org/2000/svg" xmlns:xlink="http://www.w3.org/1999/xlink" x="0px" y="0px"
	 viewBox="0 0 216 413.9" style="enable-background:new 0 0 216 413.9;" xml:space="preserve">
<style type="text/css">
	.st0{fill:#EF3C46;}
</style>
<path id="XMLID_7_" class="st0" d="M72.7,62.7c0-14.6,9.8-27.3,23.9-31.1L215.6,0v50c0,12.9-8.8,24.2-21.3,27.4L144.6,90v63
	l-71.9,17C72.7,170,72.7,62.7,72.7,62.7z"/>
<path id="XMLID_6_" class="st0" d="M216,203.9c0,12.7-8.7,23.8-21.1,26.7l-50.8,12.1v102.7c0,29.1-19.5,54.5-47.6,62L72,413.9V260.6
	l-72,18v-47.5c0-14.4,9.8-26.9,23.8-30.4L216,153.5V203.9z"/>
</svg>
